<?xml version="1.0" encoding="UTF-8"?>
<svg id="Layer_1" xmlns="http://www.w3.org/2000/svg" version="1.1" viewBox="0 0 25.38 10.33">
  <!-- Generator: Adobe Illustrator 30.3.0, SVG Export Plug-In . SVG Version: 2.1.3 Build 182)  -->
  <defs>
    <style>
      .st0 {
        fill: #09090b;
      }

      .st1 {
        fill: #ea580c;
      }

      .st2 {
        isolation: isolate;
      }
    </style>
  </defs>
  <g class="st2">
    <g class="st2">
      <path class="st1" d="M0,2.31h1.72v1.06h.06c.25-.71.85-1.14,1.65-1.14s1.43.44,1.58,1.14h.06c.23-.69.9-1.14,1.76-1.14,1.1,0,1.86.74,1.86,1.98v3.93h-1.82v-3.52c0-.59-.34-.91-.83-.91-.53,0-.84.38-.84.93v3.5h-1.74v-3.54c0-.55-.33-.89-.82-.89s-.85.39-.85.98v3.46H0V2.31Z"/>
      <path class="st1" d="M9.34,5.23c0-2.05,1.11-3,2.33-3,.93,0,1.43.55,1.65,1.07h.04V.37h1.8v7.78h-1.79v-.95h-.05c-.24.53-.75,1.03-1.64,1.03-1.3,0-2.34-1.02-2.34-3ZM13.4,5.22c0-.97-.4-1.57-1.11-1.57s-1.1.62-1.1,1.57.4,1.59,1.1,1.59,1.11-.62,1.11-1.59Z"/>
    </g>
    <g class="st2">
      <path class="st0" d="M19.18,3.64h-1.11v4.5h-1.82V3.64h-.79v-1.33h.79v-.32c0-1.32.77-1.99,1.99-1.99.42,0,.73.03,1.04.1v1.34c-.25-.02-.41-.03-.49-.03-.46,0-.72.18-.72.62v.28h1.11v1.33Z"/>
      <path class="st0" d="M19.91,10.3v-1.38c.24.02.49.02.71.02.3,0,.53-.03.69-.42l.06-.18-2.07-6.04h1.89l1.11,4.19h.06l1.11-4.19h1.91l-2.21,6.4c-.32.96-.99,1.62-2.35,1.62-.34,0-.67-.01-.9-.03Z"/>
    </g>
  </g>
</svg>