<?xml version="1.0" encoding="UTF-8"?>
<svg id="Layer_1" xmlns="http://www.w3.org/2000/svg" version="1.1" viewBox="0 0 128 128">
  <!-- Generator: Adobe Illustrator 30.3.0, SVG Export Plug-In . SVG Version: 2.1.3 Build 182)  -->
  <defs>
    <style>
      .st0 {
        fill: #09090b;
      }

      .st1 {
        isolation: isolate;
      }

      .st2 {
        fill: #737373;
      }

      .st3 {
        fill: #fafafa;
      }

      .st4 {
        fill: #fb923c;
      }
    </style>
  </defs>
  <rect class="st0" width="128" height="128" rx="24" ry="24"/>
  <g class="st1">
    <g class="st1">
      <path class="st4" d="M11.57,42.1h11.7v7.24h.44c1.68-4.82,5.77-7.75,11.26-7.75s9.72,3,10.75,7.75h.44c1.54-4.68,6.14-7.75,11.99-7.75,7.46,0,12.65,5.04,12.65,13.45v26.75h-12.35v-23.98c0-4.02-2.34-6.21-5.63-6.21-3.58,0-5.7,2.56-5.7,6.36v23.83h-11.84v-24.12c0-3.73-2.27-6.07-5.56-6.07s-5.77,2.63-5.77,6.65v23.54h-12.35v-39.69Z"/>
    </g>
    <g class="st1">
      <path class="st3" d="M76.74,61.98c0-13.96,7.53-20.39,15.86-20.39,6.36,0,9.72,3.73,11.26,7.31h.29v-20.03h12.28v52.92h-12.21v-6.43h-.37c-1.61,3.58-5.12,7.02-11.18,7.02-8.84,0-15.94-6.94-15.94-20.39ZM104.37,61.91c0-6.58-2.7-10.67-7.53-10.67s-7.46,4.24-7.46,10.67,2.7,10.82,7.46,10.82,7.53-4.24,7.53-10.82Z"/>
    </g>
  </g>
  <g class="st1">
    <path class="st2" d="M31.99,95.51h1.91v1.44h.11c.34-.97,1.2-1.55,2.33-1.55s1.97.58,2.3,1.55h.09c.38-.94,1.31-1.55,2.55-1.55,1.55,0,2.64,1,2.64,2.89v5.7h-1.98v-5.39c0-1.06-.64-1.53-1.45-1.53-.98,0-1.55.67-1.55,1.62v5.3h-1.94v-5.47c0-.88-.59-1.45-1.44-1.45s-1.56.7-1.56,1.77v5.16h-2v-8.48Z"/>
    <path class="st2" d="M46.47,99.76c0-2.83,1.55-4.36,3.52-4.36,1.5,0,2.12.89,2.42,1.5h.08v-4.22h1.98v11.31h-1.95v-1.34h-.11c-.31.62-.97,1.5-2.44,1.5-2,0-3.5-1.59-3.5-4.39ZM52.53,99.74c0-1.64-.72-2.72-2.02-2.72s-2.02,1.14-2.02,2.72.7,2.77,2.02,2.77,2.02-1.11,2.02-2.77Z"/>
    <path class="st2" d="M61.77,97.04h-1.75v6.95h-2v-6.95h-1.27v-1.53h1.27v-.81c0-1.66,1.03-2.55,2.66-2.55.47,0,.89.05,1.27.12v1.58c-.33-.05-.58-.06-.72-.06-.81,0-1.2.33-1.2,1.09v.62h1.75v1.53Z"/>
    <path class="st2" d="M64.36,107.13v-1.59c.25.02.58.03.84.03.48,0,.89-.05,1.23-.95l.17-.45-3.09-8.66h2.11l1.97,6.41h.09l1.97-6.41h2.11l-3.41,9.52c-.48,1.36-1.38,2.16-2.97,2.16-.39,0-.78-.02-1.03-.05Z"/>
    <path class="st2" d="M73.49,102.9c0-.66.55-1.2,1.22-1.2s1.2.55,1.2,1.2-.56,1.22-1.2,1.22-1.22-.55-1.22-1.22Z"/>
    <path class="st2" d="M78.47,99.79c0-2.59,1.58-4.39,4.06-4.39,2.06,0,3.5,1.2,3.64,3.03h-1.91c-.16-.81-.75-1.44-1.72-1.44-1.23,0-2.06,1.05-2.06,2.75s.81,2.8,2.06,2.8c.89,0,1.55-.52,1.72-1.44h1.91c-.16,1.8-1.52,3.06-3.64,3.06-2.53,0-4.06-1.81-4.06-4.38Z"/>
    <path class="st2" d="M88.3,99.79c0-2.59,1.58-4.39,4.06-4.39,2.06,0,3.5,1.2,3.64,3.03h-1.91c-.16-.81-.75-1.44-1.72-1.44-1.23,0-2.06,1.05-2.06,2.75s.81,2.8,2.06,2.8c.89,0,1.55-.52,1.72-1.44h1.91c-.16,1.8-1.52,3.06-3.64,3.06-2.53,0-4.06-1.81-4.06-4.38Z"/>
  </g>
</svg>