<?xml version="1.0" encoding="UTF-8"?>
<svg id="Layer_1" xmlns="http://www.w3.org/2000/svg" version="1.1" viewBox="0 0 101.95 26.3">
  <!-- Generator: Adobe Illustrator 30.3.0, SVG Export Plug-In . SVG Version: 2.1.3 Build 182)  -->
  <defs>
    <style>
      .st0 {
        fill: #09090b;
      }

      .st1 {
        fill: #ea580c;
      }

      .st2 {
        isolation: isolate;
      }

      .st3 {
        fill: #a1a1aa;
      }
    </style>
  </defs>
  <g class="st2">
    <g class="st2">
      <path class="st1" d="M0,5.88h4.38v2.71h.16c.63-1.8,2.16-2.9,4.21-2.9s3.64,1.12,4.02,2.9h.16c.57-1.75,2.3-2.9,4.48-2.9,2.79,0,4.73,1.89,4.73,5.03v10.01h-4.62v-8.97c0-1.5-.88-2.32-2.11-2.32-1.34,0-2.13.96-2.13,2.38v8.91h-4.43v-9.02c0-1.39-.85-2.27-2.08-2.27s-2.16.98-2.16,2.49v8.8H0V5.88Z"/>
      <path class="st1" d="M24.05,13.32c0-5.22,2.82-7.63,5.93-7.63,2.38,0,3.64,1.39,4.21,2.73h.11V.93h4.59v19.8h-4.57v-2.41h-.14c-.6,1.34-1.91,2.62-4.18,2.62-3.31,0-5.96-2.6-5.96-7.63ZM34.39,13.29c0-2.46-1.01-3.99-2.82-3.99s-2.79,1.59-2.79,3.99,1.01,4.05,2.79,4.05,2.82-1.59,2.82-4.05Z"/>
    </g>
    <g class="st2">
      <path class="st0" d="M49.34,9.27h-2.82v11.46h-4.62v-11.46h-2.02v-3.39h2.02v-.82c0-3.36,1.97-5.06,5.06-5.06,1.07,0,1.86.08,2.65.25v3.42c-.63-.05-1.04-.08-1.26-.08-1.18,0-1.83.46-1.83,1.59v.71h2.82v3.39Z"/>
      <path class="st0" d="M51.49,26.22v-3.5c.6.05,1.26.05,1.8.05.77,0,1.34-.08,1.75-1.07l.16-.46-5.28-15.37h4.81l2.82,10.66h.16l2.82-10.66h4.87l-5.63,16.3c-.82,2.43-2.52,4.13-5.99,4.13-.88,0-1.7-.03-2.3-.08Z"/>
    </g>
    <g class="st2">
      <path class="st3" d="M65.03,18.51c-.03-1.34,1.09-2.43,2.46-2.43s2.46,1.09,2.49,2.43c-.03,1.39-1.18,2.49-2.49,2.49s-2.49-1.09-2.46-2.49Z"/>
      <path class="st3" d="M72.02,13.34c0-4.54,2.82-7.66,7.46-7.66,4.07,0,6.73,2.35,6.84,5.96h-4.29c-.22-1.5-1.09-2.46-2.49-2.46-1.7,0-2.82,1.45-2.82,4.1s1.09,4.13,2.82,4.13c1.31,0,2.3-.85,2.49-2.43h4.29c-.14,3.61-2.71,6.02-6.84,6.02-4.68,0-7.46-3.12-7.46-7.66Z"/>
      <path class="st3" d="M87.65,13.34c0-4.54,2.82-7.66,7.46-7.66,4.07,0,6.73,2.35,6.84,5.96h-4.29c-.22-1.5-1.09-2.46-2.49-2.46-1.7,0-2.82,1.45-2.82,4.1s1.09,4.13,2.82,4.13c1.31,0,2.3-.85,2.49-2.43h4.29c-.14,3.61-2.71,6.02-6.84,6.02-4.68,0-7.46-3.12-7.46-7.66Z"/>
    </g>
  </g>
</svg>