<?xml version="1.0" encoding="UTF-8"?>
<svg id="Layer_1" xmlns="http://www.w3.org/2000/svg" version="1.1" viewBox="0 0 128 128">
  <!-- Generator: Adobe Illustrator 30.3.0, SVG Export Plug-In . SVG Version: 2.1.3 Build 182)  -->
  <defs>
    <style>
      .st0 {
        fill: #09090b;
      }

      .st1 {
        isolation: isolate;
      }

      .st2 {
        fill: #fafafa;
      }

      .st3 {
        fill: #fb923c;
      }

      .st4 {
        fill: #737373;
      }
    </style>
  </defs>
  <rect class="st0" y="0" width="128" height="128" rx="24" ry="24"/>
  <g class="st1">
    <g class="st1">
      <path class="st3" d="M11.57,42.1h11.7v7.24h.44c1.68-4.82,5.77-7.75,11.26-7.75s9.72,3,10.75,7.75h.44c1.54-4.68,6.14-7.75,11.99-7.75,7.46,0,12.65,5.04,12.65,13.45v26.75h-12.35v-23.98c0-4.02-2.34-6.21-5.63-6.21-3.58,0-5.7,2.56-5.7,6.36v23.83h-11.84v-24.12c0-3.73-2.27-6.07-5.56-6.07s-5.77,2.63-5.77,6.65v23.54h-12.35v-39.69h-.03Z"/>
    </g>
    <g class="st1">
      <path class="st2" d="M76.74,61.98c0-13.96,7.53-20.39,15.86-20.39,6.36,0,9.72,3.73,11.26,7.31h.29v-20.03h12.28v52.92h-12.21v-6.43h-.37c-1.61,3.58-5.12,7.02-11.18,7.02-8.84,0-15.94-6.94-15.94-20.39h.01ZM104.37,61.91c0-6.58-2.7-10.67-7.53-10.67s-7.46,4.24-7.46,10.67,2.7,10.82,7.46,10.82,7.53-4.24,7.53-10.82Z"/>
    </g>
  </g>
  <g>
    <path class="st4" d="M30.16,95.54h1.91v1.44h.11c.17-.48.46-.86.87-1.14.41-.27.9-.41,1.46-.41s1.06.14,1.45.41c.4.27.68.65.84,1.14h.09c.19-.47.51-.85.96-1.13.45-.28.98-.42,1.59-.42.52,0,.98.11,1.38.33.4.22.71.55.93.98.22.43.33.96.33,1.57v5.71h-1.99v-5.39c0-.5-.13-.89-.4-1.14s-.62-.39-1.05-.39c-.48,0-.86.15-1.14.45s-.41.69-.41,1.18v5.3h-1.94v-5.47c0-.29-.06-.54-.18-.76-.12-.22-.29-.39-.51-.51s-.46-.18-.75-.18-.55.07-.79.22c-.24.15-.43.36-.57.62-.14.27-.21.57-.21.92v5.16h-2v-8.49Z"/>
    <path class="st4" d="M45.35,103.66c-.53-.35-.94-.85-1.25-1.51-.3-.66-.45-1.45-.45-2.36s.15-1.7.46-2.36c.31-.66.73-1.15,1.26-1.49.53-.34,1.13-.51,1.8-.51,1.13,0,1.93.5,2.42,1.5h.08v-4.22h1.98v11.32h-1.95v-1.34h-.11c-.5,1-1.31,1.5-2.44,1.5-.67,0-1.27-.17-1.8-.52ZM48.78,102.2c.3-.23.53-.55.69-.97.16-.42.24-.9.24-1.45s-.08-1.03-.23-1.43c-.16-.41-.39-.73-.69-.95s-.67-.34-1.09-.34-.8.11-1.1.34-.53.55-.68.96c-.15.41-.23.88-.23,1.42s.08,1.02.23,1.44.39.74.69.98c.3.24.67.35,1.09.35s.78-.12,1.09-.34Z"/>
    <path class="st4" d="M57.96,97.07h-1.75v6.96h-2v-6.96h-1.27v-1.53h1.27v-.81c0-.82.24-1.45.71-1.89s1.12-.66,1.95-.66c.44,0,.86.04,1.27.12v1.58c-.29-.04-.53-.06-.72-.06-.41,0-.72.09-.91.26s-.29.45-.29.83v.63h1.75v1.53Z"/>
    <path class="st4" d="M59.56,107.17v-1.59c.33.02.61.03.84.03.2,0,.36-.02.5-.05.13-.04.26-.12.39-.26.12-.14.24-.35.35-.64l.17-.45-3.09-8.66h2.11l1.97,6.41h.09l1.97-6.41h2.11l-3.41,9.52c-.25.71-.61,1.25-1.09,1.61-.48.36-1.1.55-1.88.55-.44,0-.78-.02-1.03-.05Z"/>
    <path class="st4" d="M68.31,103.99c-.19-.11-.34-.26-.45-.45s-.16-.39-.16-.61.05-.41.16-.6c.11-.19.26-.33.45-.44.19-.11.39-.16.61-.16s.4.05.59.16c.18.11.33.26.45.44.11.18.17.38.17.6s-.06.42-.17.61-.26.34-.45.45c-.19.11-.38.16-.59.16-.22,0-.42-.05-.61-.16Z"/>
    <path class="st4" d="M72.54,99.74c.59-.39,1.35-.61,2.27-.67.9-.06,1.63-.1,2.17-.12v-.67c0-.42-.13-.75-.4-.98s-.64-.35-1.13-.35c-.43,0-.79.09-1.06.27s-.45.43-.53.74h-1.92c.05-.48.22-.92.52-1.3s.71-.68,1.23-.9c.52-.22,1.13-.33,1.82-.33.59,0,1.15.09,1.68.28.52.18.95.49,1.29.93.34.43.5,1.01.5,1.71v5.67h-1.91v-1.17h-.06c-.21.4-.52.72-.94.97-.42.25-.94.38-1.56.38-.55,0-1.04-.1-1.46-.3-.43-.2-.77-.49-1.01-.88s-.37-.85-.37-1.39c0-.88.3-1.51.89-1.89ZM73.97,102.45c.26.19.61.29,1.05.29.39,0,.74-.08,1.04-.23.3-.16.54-.37.7-.64.16-.27.25-.56.25-.88v-.7s-1.88.12-1.88.12c-.49.04-.87.16-1.14.37-.27.2-.41.49-.41.85s.13.63.39.83Z"/>
    <path class="st4" d="M80.84,95.54h1.95v1.39h.12c.21-.42.51-.77.88-1.06.38-.29.89-.44,1.56-.44s1.26.17,1.79.51c.53.34.95.84,1.25,1.49.31.66.46,1.44.46,2.36s-.15,1.7-.45,2.36c-.3.66-.72,1.17-1.25,1.51-.53.35-1.13.52-1.8.52-1.13,0-1.94-.5-2.44-1.5h-.08v4.53h-2v-11.67ZM83.03,101.23c.16.42.39.74.69.97.3.23.67.34,1.09.34s.79-.12,1.09-.35c.3-.23.53-.56.69-.98s.23-.9.23-1.44-.08-1-.23-1.42c-.15-.41-.38-.73-.68-.96-.3-.23-.67-.34-1.1-.34s-.79.11-1.09.34-.53.54-.69.95c-.16.41-.23.89-.23,1.43s.08,1.04.23,1.45Z"/>
    <path class="st4" d="M90.42,95.54h1.95v1.39h.12c.21-.42.51-.77.88-1.06.38-.29.89-.44,1.56-.44s1.26.17,1.79.51c.53.34.95.84,1.25,1.49.31.66.46,1.44.46,2.36s-.15,1.7-.45,2.36c-.3.66-.72,1.17-1.25,1.51-.53.35-1.13.52-1.8.52-1.13,0-1.94-.5-2.44-1.5h-.08v4.53h-2v-11.67ZM92.61,101.23c.16.42.39.74.69.97.3.23.67.34,1.09.34s.79-.12,1.09-.35c.3-.23.53-.56.69-.98s.23-.9.23-1.44-.08-1-.23-1.42c-.15-.41-.38-.73-.68-.96-.3-.23-.67-.34-1.1-.34s-.79.11-1.09.34-.53.54-.69.95c-.16.41-.23.89-.23,1.43s.08,1.04.23,1.45Z"/>
  </g>
</svg>