<?xml version="1.0" encoding="UTF-8"?>
<svg id="Layer_1" xmlns="http://www.w3.org/2000/svg" version="1.1" viewBox="0 0 119.33 26.53">
  <!-- Generator: Adobe Illustrator 30.3.0, SVG Export Plug-In . SVG Version: 2.1.3 Build 182)  -->
  <defs>
    <style>
      .st0 {
        fill: #09090b;
      }

      .st1 {
        fill: #ea580c;
      }

      .st2 {
        fill: #a1a1aa;
      }
    </style>
  </defs>
  <g>
    <path class="st1" d="M0,5.88h4.38v2.71h.16c.63-1.8,2.16-2.9,4.21-2.9s3.64,1.12,4.02,2.9h.16c.57-1.75,2.3-2.9,4.48-2.9,2.79,0,4.73,1.89,4.73,5.03v10.01h-4.62v-8.97c0-1.5-.88-2.32-2.11-2.32-1.34,0-2.13.96-2.13,2.38v8.91h-4.43v-9.02c0-1.39-.85-2.27-2.08-2.27s-2.16.98-2.16,2.49v8.8H0V5.88Z"/>
    <path class="st1" d="M24.05,13.32c0-5.22,2.82-7.63,5.93-7.63,2.38,0,3.64,1.39,4.21,2.73h.11V.93h4.59v19.8h-4.57v-2.41h-.14c-.6,1.34-1.91,2.62-4.18,2.62-3.31,0-5.96-2.6-5.96-7.63h0ZM34.39,13.29c0-2.46-1.01-3.99-2.82-3.99s-2.79,1.59-2.79,3.99,1.01,4.05,2.79,4.05,2.82-1.59,2.82-4.05Z"/>
  </g>
  <g>
    <path class="st0" d="M49.34,9.27h-2.82v11.46h-4.62v-11.46h-2.02v-3.39h2.02v-.82c0-3.36,1.97-5.06,5.06-5.06,1.07,0,1.86.08,2.65.25v3.42c-.63-.05-1.04-.08-1.26-.08-1.18,0-1.83.46-1.83,1.59v.71h2.82v3.39h0Z"/>
    <path class="st0" d="M51.49,26.22v-3.5c.6.05,1.26.05,1.8.05.77,0,1.34-.08,1.75-1.07l.16-.46-5.28-15.37h4.81l2.82,10.66h.16l2.82-10.66h4.87l-5.63,16.3c-.82,2.43-2.52,4.13-5.99,4.13-.88,0-1.7-.03-2.3-.08h.01Z"/>
  </g>
  <path class="st2" d="M66.32,20.72c-.39-.23-.7-.55-.93-.94-.23-.39-.34-.81-.34-1.27s.11-.85.34-1.24c.22-.39.53-.7.93-.92s.82-.34,1.28-.34.87.11,1.25.34.7.53.94.92.36.8.36,1.24-.12.88-.36,1.27-.55.7-.94.94-.8.35-1.25.35-.89-.12-1.28-.35Z"/>
  <path class="st2" d="M79.23,14.45l-1.27.11c-.61.06-1.09.24-1.44.56s-.53.72-.53,1.21c0,.33.08.61.25.85.17.24.4.42.7.54.3.12.64.18,1.03.18.53,0,1.02-.11,1.46-.33s.79-.52,1.04-.91c.25-.39.38-.82.38-1.3l-.04-4.99c0-.36-.08-.66-.24-.92s-.4-.45-.72-.58c-.32-.13-.69-.19-1.12-.19-.62,0-1.12.13-1.52.4-.39.27-.63.65-.72,1.16h-4.44c.08-.92.4-1.75.93-2.5s1.3-1.34,2.29-1.77c.99-.43,2.17-.65,3.55-.65,1.28,0,2.43.2,3.45.6,1.02.4,1.82.98,2.4,1.75s.88,1.69.88,2.76v10.36h-4.47v-2.12h-.11c-.27.51-.62.94-1.04,1.29s-.91.62-1.48.81c-.56.19-1.21.28-1.94.28-.98,0-1.85-.17-2.61-.51-.75-.34-1.35-.84-1.78-1.52-.43-.67-.65-1.5-.65-2.48,0-1.59.52-2.76,1.56-3.51,1.04-.75,2.41-1.17,4.09-1.27.32-.03,1.18-.07,2.57-.13l1.31-.06.03,2.78c-.45,0-1.06.04-1.83.08Z"/>
  <path class="st2" d="M87.39,5.52h4.67v2.62h.18c.22-.53.52-1.01.89-1.41.37-.41.84-.74,1.41-1.01.58-.26,1.24-.39,2-.39,1.12,0,2.15.29,3.07.86s1.65,1.45,2.21,2.62c.55,1.18.83,2.63.83,4.35s-.27,3.11-.79,4.3-1.26,2.08-2.19,2.67c-.93.6-1.97.89-3.14.89-.74,0-1.4-.12-1.97-.37-.57-.25-1.04-.57-1.41-.96-.37-.39-.67-.84-.91-1.35h-.11v8.2h-4.74V5.52ZM92.35,15.34c.23.63.57,1.11,1,1.46.44.34.96.51,1.57.51s1.13-.17,1.56-.52c.43-.35.76-.83.98-1.46.23-.62.34-1.35.34-2.19s-.11-1.56-.34-2.18c-.22-.62-.55-1.09-.98-1.43-.43-.33-.95-.5-1.56-.5s-1.14.16-1.58.49c-.43.33-.76.8-1,1.42s-.35,1.35-.35,2.19.12,1.57.35,2.19Z"/>
  <path class="st2" d="M104.07,5.52h4.67v2.62h.18c.22-.53.52-1.01.89-1.41.37-.41.84-.74,1.41-1.01.58-.26,1.24-.39,2-.39,1.12,0,2.15.29,3.07.86s1.65,1.45,2.21,2.62c.55,1.18.83,2.63.83,4.35s-.27,3.11-.79,4.3-1.26,2.08-2.19,2.67c-.93.6-1.97.89-3.14.89-.74,0-1.4-.12-1.97-.37-.57-.25-1.04-.57-1.41-.96-.37-.39-.67-.84-.91-1.35h-.11v8.2h-4.74V5.52ZM109.04,15.34c.23.63.57,1.11,1,1.46.44.34.96.51,1.57.51s1.13-.17,1.56-.52c.43-.35.76-.83.98-1.46.23-.62.34-1.35.34-2.19s-.11-1.56-.34-2.18c-.22-.62-.55-1.09-.98-1.43-.43-.33-.95-.5-1.56-.5s-1.14.16-1.58.49c-.43.33-.76.8-1,1.42s-.35,1.35-.35,2.19.12,1.57.35,2.19Z"/>
</svg>