<?xml version="1.0" encoding="UTF-8"?>
<svg id="Layer_1" xmlns="http://www.w3.org/2000/svg" version="1.1" viewBox="0 0 32 32">
  <!-- Generator: Adobe Illustrator 30.3.0, SVG Export Plug-In . SVG Version: 2.1.3 Build 182)  -->
  <defs>
    <style>
      .st0 {
        isolation: isolate;
      }

      .st1 {
        fill: #fafafa;
      }

      .st2 {
        fill: #fb923c;
      }

      .st3 {
        fill: #1a1a1a;
      }
    </style>
  </defs>
  <rect class="st3" y="0" width="32" height="32" rx="6" ry="6"/>
  <g class="st0">
    <g class="st0">
      <path class="st2" d="M2.9,13.02h2.93v1.81h.11c.42-1.21,1.45-1.94,2.82-1.94s2.44.75,2.69,1.94h.11c.38-1.17,1.54-1.94,3.01-1.94,1.87,0,3.17,1.26,3.17,3.37v6.71h-3.1v-6.01c0-1.01-.59-1.56-1.41-1.56-.9,0-1.43.64-1.43,1.59v5.98h-2.97v-6.05c0-.93-.57-1.52-1.39-1.52s-1.45.66-1.45,1.67v5.9h-3.1v-9.95Z"/>
    </g>
    <g class="st0">
      <path class="st1" d="M19.24,18c0-3.5,1.89-5.11,3.98-5.11,1.59,0,2.44.93,2.82,1.83h.07v-5.02h3.08v13.27h-3.06v-1.61h-.09c-.4.9-1.28,1.76-2.8,1.76-2.22,0-4-1.74-4-5.11ZM26.17,17.98c0-1.65-.68-2.68-1.89-2.68s-1.87,1.06-1.87,2.68.68,2.71,1.87,2.71,1.89-1.06,1.89-2.71Z"/>
    </g>
  </g>
</svg>